<?xml version="1.0" encoding="UTF-8" standalone="no"?>
<!-- Created with Inkscape (http://www.inkscape.org/) -->

<svg
   xmlns:dc="http://purl.org/dc/elements/1.1/"
   xmlns:cc="http://creativecommons.org/ns#"
   xmlns:rdf="http://www.w3.org/1999/02/22-rdf-syntax-ns#"
   xmlns:svg="http://www.w3.org/2000/svg"
   xmlns="http://www.w3.org/2000/svg"
   xmlns:sodipodi="http://sodipodi.sourceforge.net/DTD/sodipodi-0.dtd"
   xmlns:inkscape="http://www.inkscape.org/namespaces/inkscape"
   width="176.26288mm"
   height="176.26288mm"
   viewBox="0 0 176.26288 176.26288"
   version="1.1"
   id="svg8"
   inkscape:version="0.92.2 5c3e80d, 2017-08-06"
   sodipodi:docname="cupola-profile.svg">
  <defs
     id="defs2" />
  <sodipodi:namedview
     id="base"
     pagecolor="#ffffff"
     bordercolor="#666666"
     borderopacity="1.0"
     inkscape:pageopacity="0.0"
     inkscape:pageshadow="2"
     inkscape:zoom="0.35"
     inkscape:cx="104.26817"
     inkscape:cy="307.81494"
     inkscape:document-units="mm"
     inkscape:current-layer="layer1"
     showgrid="false"
     fit-margin-top="0"
     fit-margin-left="0"
     fit-margin-right="0"
     fit-margin-bottom="0"
     inkscape:window-width="1440"
     inkscape:window-height="878"
     inkscape:window-x="0"
     inkscape:window-y="0"
     inkscape:window-maximized="1" />
  <metadata
     id="metadata5">
    <rdf:RDF>
      <cc:Work
         rdf:about="">
        <dc:format>image/svg+xml</dc:format>
        <dc:type
           rdf:resource="http://purl.org/dc/dcmitype/StillImage" />
        <dc:title></dc:title>
      </cc:Work>
    </rdf:RDF>
  </metadata>
  <g
     inkscape:label="Layer 1"
     inkscape:groupmode="layer"
     id="layer1"
     transform="translate(-24.064491,-23.597244)">
    <circle
       style="opacity:1;fill:#000000;fill-opacity:1;stroke:none;stroke-width:2.47097516;stroke-linecap:round;stroke-linejoin:round;stroke-miterlimit:4;stroke-dasharray:none;stroke-dashoffset:0;stroke-opacity:1"
       id="path932"
       cx="112.19593"
       cy="111.72868"
       r="88.131439" />
    <g
       id="g1082"
       transform="matrix(0.26458333,0,0,0.26458333,196.19732,112.87279)">
      <g
         id="g1026" />
      <g
         id="g1028" />
      <g
         id="g1030" />
      <g
         id="g1032" />
      <g
         id="g1034" />
      <g
         id="g1036" />
      <g
         id="g1038" />
      <g
         id="g1040" />
      <g
         id="g1042" />
      <g
         id="g1044" />
      <g
         id="g1046" />
      <g
         id="g1048" />
      <g
         id="g1050" />
      <g
         id="g1052" />
      <g
         id="g1054" />
      <g
         id="g1056" />
    </g>
    <g
       id="g1103"
       transform="translate(-0.0417976,2.1622968)">
      <circle
         r="25.524239"
         cy="110.57951"
         cx="111.85231"
         id="path914"
         style="opacity:1;fill:#ffffff;fill-opacity:1;stroke:none;stroke-width:2.27637005;stroke-linecap:round;stroke-linejoin:round;stroke-miterlimit:4;stroke-dasharray:none;stroke-dashoffset:0;stroke-opacity:1" />
      <path
         sodipodi:nodetypes="cccsscsssc"
         inkscape:connector-curvature="0"
         id="path918"
         d="m 50.650792,135.49482 c 13.956923,-7.20357 15.36339,-7.73348 21.845643,-10.9963 0.742155,-0.27425 1.049659,-1.04553 1.043911,-1.98042 0.0299,-7.56593 0.01566,-16.57348 0.0076,-25.892163 -8.64e-4,-0.995712 -0.942559,-1.881787 -1.804274,-2.380681 -7.91498,-4.582484 -20.86658,-11.629925 -20.86658,-11.629925 -1.456223,-0.607564 -1.396897,1.240084 -1.396897,1.240084 -0.222209,23.370605 -0.31582,28.932385 -0.699067,50.528535 -0.01285,0.72482 1.221669,1.43583 1.869695,1.11087 z"
         style="fill:#ffffff;fill-opacity:1;fill-rule:evenodd;stroke:none;stroke-width:0.26458332px;stroke-linecap:butt;stroke-linejoin:miter;stroke-opacity:1" />
      <path
         sodipodi:nodetypes="cccsscsssc"
         inkscape:connector-curvature="0"
         id="path1086"
         d="m 104.49716,175.48327 c 0.31349,-15.70315 0.51743,-17.19223 0.73591,-24.44604 0.11232,-0.7832 -0.41939,-1.42094 -1.24417,-1.86116 -6.638392,-3.62986 -14.565423,-7.90754 -22.763087,-12.3388 -0.875931,-0.4735 -2.103566,-0.0675 -2.952661,0.45258 -7.799137,4.77697 -20.164578,12.80855 -20.164578,12.80855 -1.227801,0.99106 0.42507,1.81891 0.42507,1.81891 20.443677,11.32655 25.28951,14.05788 44.096226,24.68086 0.6312,0.35654 1.84437,-0.39032 1.86729,-1.11491 z"
         style="fill:#ffffff;fill-opacity:1;fill-rule:evenodd;stroke:none;stroke-width:0.26458332px;stroke-linecap:butt;stroke-linejoin:miter;stroke-opacity:1" />
      <path
         style="fill:#ffffff;fill-opacity:1;fill-rule:evenodd;stroke:none;stroke-width:0.26458332px;stroke-linecap:butt;stroke-linejoin:miter;stroke-opacity:1"
         d="m 59.181003,69.699637 c 13.250389,8.43294 14.416295,9.38142 20.498802,13.33979 0.610582,0.50319 1.4318,0.38061 2.236692,-0.095 6.552335,-3.783 14.328076,-8.32989 22.375723,-13.02809 0.8599,-0.50201 1.15144,-1.76174 1.1487,-2.75745 -0.0251,-9.145788 -0.45591,-23.884336 -0.45591,-23.884336 -0.20813,-1.564098 -1.77471,-0.582695 -1.77471,-0.582695 -20.30504,11.573231 -25.157784,14.292261 -44.010693,24.833051 -0.632752,0.35378 -0.625607,1.7784 -0.0186,2.17473 z"
         id="path1088"
         inkscape:connector-curvature="0"
         sodipodi:nodetypes="cccsscsssc" />
      <path
         sodipodi:nodetypes="cccsscsssc"
         inkscape:connector-curvature="0"
         id="path1090"
         d="m 119.50186,45.380959 c -0.28553,15.703687 -0.48682,17.193123 -0.69237,24.44732 -0.11094,0.78339 0.42191,1.420178 1.24747,1.858931 6.64486,3.618038 14.57949,7.88159 22.78503,12.298246 0.87678,0.471923 2.10369,0.06374 2.95185,-0.457845 7.79063,-4.790851 20.14174,-12.844444 20.14174,-12.844444 1.22604,-0.99325 -0.4283,-1.818155 -0.4283,-1.818155 -20.46382,-11.290116 -25.31451,-14.012807 -44.14012,-24.602282 -0.63184,-0.355406 -1.84368,0.393611 -1.8653,1.118229 z"
         style="fill:#ffffff;fill-opacity:1;fill-rule:evenodd;stroke:none;stroke-width:0.26458332px;stroke-linecap:butt;stroke-linejoin:miter;stroke-opacity:1" />
      <path
         style="fill:#ffffff;fill-opacity:1;fill-rule:evenodd;stroke:none;stroke-width:0.26458332px;stroke-linecap:butt;stroke-linejoin:miter;stroke-opacity:1"
         d="m 173.82119,84.61334 c -13.93398,7.247862 -15.33876,7.782228 -21.81062,11.065615 -0.74128,0.276606 -1.04633,1.048856 -1.03761,1.983722 -0.006,7.565993 0.0369,16.573463 0.0746,25.892063 0.004,0.99571 0.94853,1.87879 1.81182,2.37494 7.92949,4.55733 20.90341,11.56361 20.90341,11.56361 1.45814,0.60294 1.39295,-1.24451 1.39295,-1.24451 0.148,-23.3712 0.22395,-28.93325 0.53862,-50.530509 0.0106,-0.72486 -1.22622,-1.431949 -1.87321,-1.104931 z"
         id="path1092"
         inkscape:connector-curvature="0"
         sodipodi:nodetypes="cccsscsssc" />
      <path
         sodipodi:nodetypes="cccsscsssc"
         inkscape:connector-curvature="0"
         id="path1094"
         d="m 167.81888,149.49348 c -13.23906,-8.4507 -14.40369,-9.40074 -20.48089,-13.36727 -0.6099,-0.504 -1.43129,-0.38253 -2.23681,0.092 -6.55741,3.7742 -14.33924,8.31066 -22.39318,12.99807 -0.86057,0.50085 -1.1538,1.76019 -1.1524,2.7559 0.0128,9.14582 0.42387,23.88493 0.42387,23.88493 0.20599,1.56439 1.77393,0.58508 1.77393,0.58508 20.32055,-11.546 25.17694,-14.25852 44.04397,-24.77402 0.63322,-0.35293 0.628,-1.77755 0.0215,-2.1747 z"
         style="fill:#ffffff;fill-opacity:1;fill-rule:evenodd;stroke:none;stroke-width:0.26458332px;stroke-linecap:butt;stroke-linejoin:miter;stroke-opacity:1" />
    </g>
  </g>
</svg>
